# xmcd
# 
# Track frame offsets:
#     150
#     18916
#     43348
#     66458
# 
# Disc length: 1226
# 
# Revision: 1
# Processed by: cddbd v1.5.2PL0 Copyright (c) Steve Scherf et al.
# Submitted via: fre:ac v1.0.27
# 
DISCID=3404c804
DTITLE=auf Reize - auf Reize
DYEAR=2002
DGENRE=Funk
TTITLE0=空飛ぶオトナ
TTITLE1=Midnight Highway
TTITLE2=Right This Time
TTITLE3=タビダチ ノ シレン
EXTD=
EXTT0=
EXTT1=
EXTT2=
EXTT3=
PLAYORDER=
